<?xml version="1.0" encoding="utf-8" standalone="no"?>
<!DOCTYPE svg PUBLIC "-//W3C//DTD SVG 1.1//EN"
  "http://www.w3.org/Graphics/SVG/1.1/DTD/svg11.dtd">
<!-- Created with matplotlib (http://matplotlib.org/) -->
<svg height="381pt" version="1.1" viewBox="0 0 399 381" width="399pt" xmlns="http://www.w3.org/2000/svg" xmlns:xlink="http://www.w3.org/1999/xlink">
 <defs>
  <style type="text/css">
*{stroke-linecap:butt;stroke-linejoin:round;}
  </style>
 </defs>
 <g id="figure_1">
  <g id="patch_1">
   <path d="
M5.32907e-15 381.421
L399.556 381.421
L399.556 0
L5.32907e-15 0
L5.32907e-15 381.421" style="fill:none;"/>
  </g>
  <g id="axes_1">
   <g id="patch_2">
    <path clip-path="url(#pe5acf616c5)" d="
M293.243 185.028
C300.117 185.028 306.71 182.297 311.571 177.436
C316.431 172.575 319.163 165.982 319.163 159.108
C319.163 152.234 316.431 145.64 311.571 140.78
C306.71 135.919 300.117 133.188 293.243 133.188
C286.368 133.188 279.775 135.919 274.914 140.78
C270.054 145.64 267.323 152.234 267.323 159.108
C267.323 165.982 270.054 172.575 274.914 177.436
C279.775 182.297 286.368 185.028 293.243 185.028
z
" style="fill:none;stroke:#000000;stroke-linejoin:miter;stroke-width:4;"/>
   </g>
   <g id="patch_3">
    <path clip-path="url(#pe5acf616c5)" d="
M211.071 125.327
C217.945 125.327 224.539 122.596 229.399 117.735
C234.26 112.874 236.991 106.281 236.991 99.4069
C236.991 92.5328 234.26 85.9394 229.399 81.0787
C224.539 76.218 217.945 73.4869 211.071 73.4869
C204.197 73.4869 197.604 76.218 192.743 81.0787
C187.882 85.9394 185.151 92.5328 185.151 99.4069
C185.151 106.281 187.882 112.874 192.743 117.735
C197.604 122.596 204.197 125.327 211.071 125.327
z
" style="fill:none;stroke:#000000;stroke-linejoin:miter;stroke-width:4;"/>
   </g>
   <g id="patch_4">
    <path clip-path="url(#pe5acf616c5)" d="
M128.9 185.028
C135.774 185.028 142.367 182.297 147.228 177.436
C152.089 172.575 154.82 165.982 154.82 159.108
C154.82 152.234 152.089 145.64 147.228 140.78
C142.367 135.919 135.774 133.188 128.9 133.188
C122.026 133.188 115.432 135.919 110.572 140.78
C105.711 145.64 102.98 152.234 102.98 159.108
C102.98 165.982 105.711 172.575 110.572 177.436
C115.432 182.297 122.026 185.028 128.9 185.028
z
" style="fill:none;stroke:#000000;stroke-linejoin:miter;stroke-width:4;"/>
   </g>
   <g id="patch_5">
    <path clip-path="url(#pe5acf616c5)" d="
M160.287 281.626
C167.161 281.626 173.754 278.895 178.615 274.034
C183.476 269.173 186.207 262.58 186.207 255.706
C186.207 248.832 183.476 242.238 178.615 237.378
C173.754 232.517 167.161 229.786 160.287 229.786
C153.413 229.786 146.819 232.517 141.958 237.378
C137.098 242.238 134.367 248.832 134.367 255.706
C134.367 262.58 137.098 269.173 141.958 274.034
C146.819 278.895 153.413 281.626 160.287 281.626
z
" style="fill:none;stroke:#000000;stroke-linejoin:miter;stroke-width:4;"/>
   </g>
   <g id="patch_6">
    <path clip-path="url(#pe5acf616c5)" d="
M261.856 281.626
C268.73 281.626 275.323 278.895 280.184 274.034
C285.045 269.173 287.776 262.58 287.776 255.706
C287.776 248.832 285.045 242.238 280.184 237.378
C275.323 232.517 268.73 229.786 261.856 229.786
C254.982 229.786 248.388 232.517 243.528 237.378
C238.667 242.238 235.936 248.832 235.936 255.706
C235.936 262.58 238.667 269.173 243.528 274.034
C248.388 278.895 254.982 281.626 261.856 281.626
z
" style="fill:none;stroke:#000000;stroke-linejoin:miter;stroke-width:4;"/>
   </g>
   <g id="patch_7">
    <path clip-path="url(#pe5acf616c5)" d="
M281.626 135.937
C276.175 128.225 269.496 121.459 261.856 115.908
C254.216 110.357 245.717 106.096 236.698 103.295" style="fill:none;stroke:#000000;stroke-dasharray:6.000000,6.000000;stroke-dashoffset:0.0;stroke-linejoin:miter;stroke-width:6;"/>
   </g>
   <g id="patch_8">
    <path clip-path="url(#pe5acf616c5)" d="
M185.445 103.295
C176.426 106.096 167.927 110.357 160.287 115.908
C152.646 121.459 145.968 128.225 140.517 135.937" style="fill:none;stroke:#000000;stroke-dasharray:6.000000,6.000000;stroke-dashoffset:0.0;stroke-linejoin:miter;stroke-width:6;"/>
   </g>
   <g id="patch_9">
    <path clip-path="url(#pe5acf616c5)" d="
M124.679 184.682
C124.556 194.125 125.982 203.524 128.9 212.506
C131.818 221.488 136.189 229.93 141.839 237.497" style="fill:none;stroke:#000000;stroke-dasharray:6.000000,6.000000;stroke-dashoffset:0.0;stroke-linejoin:miter;stroke-width:6;"/>
   </g>
   <g id="patch_10">
    <path clip-path="url(#pe5acf616c5)" d="
M183.304 267.624
C192.247 270.659 201.627 272.207 211.071 272.207
C220.515 272.207 229.895 270.659 238.838 267.624" style="fill:none;stroke:#000000;stroke-dasharray:6.000000,6.000000;stroke-dashoffset:0.0;stroke-linejoin:miter;stroke-width:6;"/>
   </g>
   <g id="patch_11">
    <path clip-path="url(#pe5acf616c5)" d="
M280.303 237.497
C285.953 229.93 290.324 221.488 293.243 212.506
C296.161 203.524 297.587 194.125 297.464 184.682" style="fill:none;stroke:#000000;stroke-dasharray:6.000000,6.000000;stroke-dashoffset:0.0;stroke-linejoin:miter;stroke-width:6;"/>
   </g>
  </g>
 </g>
 <defs>
  <clipPath id="pe5acf616c5">
   <rect height="345.6" width="345.6" x="38.27125" y="13.006875"/>
  </clipPath>
 </defs>
</svg>
