<?xml version="1.0" encoding="utf-8" standalone="no"?>
<!DOCTYPE svg PUBLIC "-//W3C//DTD SVG 1.1//EN"
  "http://www.w3.org/Graphics/SVG/1.1/DTD/svg11.dtd">
<!-- Created with matplotlib (http://matplotlib.org/) -->
<svg height="381pt" version="1.1" viewBox="0 0 399 381" width="399pt" xmlns="http://www.w3.org/2000/svg" xmlns:xlink="http://www.w3.org/1999/xlink">
 <defs>
  <style type="text/css">
*{stroke-linecap:butt;stroke-linejoin:round;}
  </style>
 </defs>
 <g id="figure_1">
  <g id="patch_1">
   <path d="
M0 381.421
L399.556 381.421
L399.556 0
L0 0
z
" style="fill:#ffffff;"/>
  </g>
  <g id="axes_1">
   <g id="patch_2">
    <path clip-path="url(#pe5acf616c5)" d="
M136.247 254.927
C143.121 254.927 149.714 252.196 154.575 247.335
C159.436 242.474 162.167 235.881 162.167 229.007
C162.167 222.133 159.436 215.539 154.575 210.679
C149.714 205.818 143.121 203.087 136.247 203.087
C129.373 203.087 122.779 205.818 117.918 210.679
C113.058 215.539 110.327 222.133 110.327 229.007
C110.327 235.881 113.058 242.474 117.918 247.335
C122.779 252.196 129.373 254.927 136.247 254.927
z
" style="fill:#ffffff;stroke:#000000;stroke-width:4;"/>
   </g>
   <g id="patch_3">
    <path clip-path="url(#pe5acf616c5)" d="
M186.13 226.127
C193.004 226.127 199.597 223.396 204.458 218.535
C209.319 213.674 212.05 207.081 212.05 200.207
C212.05 193.333 209.319 186.739 204.458 181.879
C199.597 177.018 193.004 174.287 186.13 174.287
C179.256 174.287 172.662 177.018 167.802 181.879
C162.941 186.739 160.21 193.333 160.21 200.207
C160.21 207.081 162.941 213.674 167.802 218.535
C172.662 223.396 179.256 226.127 186.13 226.127
z
" style="fill:#ffffff;stroke:#000000;stroke-width:4;"/>
   </g>
   <g id="patch_4">
    <path clip-path="url(#pe5acf616c5)" d="
M236.013 197.327
C242.887 197.327 249.48 194.596 254.341 189.735
C259.202 184.874 261.933 178.281 261.933 171.407
C261.933 164.533 259.202 157.939 254.341 153.079
C249.48 148.218 242.887 145.487 236.013 145.487
C229.139 145.487 222.545 148.218 217.685 153.079
C212.824 157.939 210.093 164.533 210.093 171.407
C210.093 178.281 212.824 184.874 217.685 189.735
C222.545 194.596 229.139 197.327 236.013 197.327
z
" style="fill:#ffffff;stroke:#000000;stroke-width:4;"/>
   </g>
   <g id="patch_5">
    <path clip-path="url(#pe5acf616c5)" d="
M285.896 168.527
C292.77 168.527 299.363 165.796 304.224 160.935
C309.085 156.074 311.816 149.481 311.816 142.607
C311.816 135.733 309.085 129.139 304.224 124.279
C299.363 119.418 292.77 116.687 285.896 116.687
C279.022 116.687 272.428 119.418 267.568 124.279
C262.707 129.139 259.976 135.733 259.976 142.607
C259.976 149.481 262.707 156.074 267.568 160.935
C272.428 165.796 279.022 168.527 285.896 168.527
z
" style="fill:#ffffff;stroke:#000000;stroke-width:4;"/>
   </g>
   <g id="line2d_1">
    <path clip-path="url(#pe5acf616c5)" d="
M136.247 229.007
L285.896 142.607" style="fill:none;stroke:#000000;stroke-dasharray:6.000000,6.000000;stroke-dashoffset:0.0;stroke-width:6;"/>
   </g>
  </g>
 </g>
 <defs>
  <clipPath id="pe5acf616c5">
   <rect height="345.6" width="345.6" x="38.27125" y="13.006875"/>
  </clipPath>
 </defs>
</svg>
