<?xml version="1.0" encoding="utf-8" standalone="no"?>
<!DOCTYPE svg PUBLIC "-//W3C//DTD SVG 1.1//EN"
  "http://www.w3.org/Graphics/SVG/1.1/DTD/svg11.dtd">
<!-- Created with matplotlib (http://matplotlib.org/) -->
<svg height="381pt" version="1.1" viewBox="0 0 399 381" width="399pt" xmlns="http://www.w3.org/2000/svg" xmlns:xlink="http://www.w3.org/1999/xlink">
 <defs>
  <style type="text/css">
*{stroke-linecap:butt;stroke-linejoin:round;}
  </style>
 </defs>
 <g id="figure_1">
  <g id="patch_1">
   <path d="
M5.32907e-15 381.421
L399.556 381.421
L399.556 0
L5.32907e-15 0
L5.32907e-15 381.421" style="fill:none;"/>
  </g>
  <g id="axes_1">
   <g id="patch_2">
    <path clip-path="url(#pe5acf616c5)" d="
M91.3519 280.847
C98.226 280.847 104.819 278.116 109.68 273.255
C114.541 268.394 117.272 261.801 117.272 254.927
C117.272 248.053 114.541 241.459 109.68 236.599
C104.819 231.738 98.226 229.007 91.3519 229.007
C84.4778 229.007 77.8844 231.738 73.0237 236.599
C68.163 241.459 65.4319 248.053 65.4319 254.927
C65.4319 261.801 68.163 268.394 73.0237 273.255
C77.8844 278.116 84.4778 280.847 91.3519 280.847
z
" style="fill:none;stroke:#000000;stroke-linejoin:miter;stroke-width:4;"/>
   </g>
   <g id="patch_3">
    <path clip-path="url(#pe5acf616c5)" d="
M171.165 234.767
C178.039 234.767 184.632 232.036 189.493 227.175
C194.354 222.314 197.085 215.721 197.085 208.847
C197.085 201.973 194.354 195.379 189.493 190.519
C184.632 185.658 178.039 182.927 171.165 182.927
C164.291 182.927 157.697 185.658 152.837 190.519
C147.976 195.379 145.245 201.973 145.245 208.847
C145.245 215.721 147.976 222.314 152.837 227.175
C157.697 232.036 164.291 234.767 171.165 234.767
z
" style="fill:none;stroke:#000000;stroke-linejoin:miter;stroke-width:4;"/>
   </g>
   <g id="patch_4">
    <path clip-path="url(#pe5acf616c5)" d="
M250.978 188.687
C257.852 188.687 264.445 185.956 269.306 181.095
C274.167 176.234 276.898 169.641 276.898 162.767
C276.898 155.893 274.167 149.299 269.306 144.439
C264.445 139.578 257.852 136.847 250.978 136.847
C244.104 136.847 237.51 139.578 232.649 144.439
C227.789 149.299 225.058 155.893 225.058 162.767
C225.058 169.641 227.789 176.234 232.649 181.095
C237.51 185.956 244.104 188.687 250.978 188.687
z
" style="fill:none;stroke:#000000;stroke-linejoin:miter;stroke-width:4;"/>
   </g>
   <g id="patch_5">
    <path clip-path="url(#pe5acf616c5)" d="
M330.791 142.607
C337.665 142.607 344.258 139.876 349.119 135.015
C353.98 130.154 356.711 123.561 356.711 116.687
C356.711 109.813 353.98 103.219 349.119 98.3587
C344.258 93.498 337.665 90.7669 330.791 90.7669
C323.917 90.7669 317.323 93.498 312.462 98.3587
C307.602 103.219 304.871 109.813 304.871 116.687
C304.871 123.561 307.602 130.154 312.462 135.015
C317.323 139.876 323.917 142.607 330.791 142.607
z
" style="fill:none;stroke:#000000;stroke-linejoin:miter;stroke-width:4;"/>
   </g>
   <g id="line2d_1">
    <path clip-path="url(#pe5acf616c5)" d="
M113.799 241.967
L148.717 221.807" style="fill:none;stroke:#000000;stroke-dasharray:6.000000,6.000000;stroke-dashoffset:0.0;stroke-width:6;"/>
   </g>
   <g id="line2d_2">
    <path clip-path="url(#pe5acf616c5)" d="
M193.612 195.887
L228.53 175.727" style="fill:none;stroke:#000000;stroke-dasharray:6.000000,6.000000;stroke-dashoffset:0.0;stroke-width:6;"/>
   </g>
   <g id="line2d_3">
    <path clip-path="url(#pe5acf616c5)" d="
M273.425 149.807
L308.343 129.647" style="fill:none;stroke:#000000;stroke-dasharray:6.000000,6.000000;stroke-dashoffset:0.0;stroke-width:6;"/>
   </g>
  </g>
 </g>
 <defs>
  <clipPath id="pe5acf616c5">
   <rect height="345.6" width="345.6" x="38.27125" y="13.006875"/>
  </clipPath>
 </defs>
</svg>
